<svg preserveAspectRatio="none" width="100%" height="100%" overflow="visible" style="display: block;" viewBox="0 0 403.278 236.261" fill="none" xmlns="http://www.w3.org/2000/svg">
<g id="Group 2">
<path id="Subtract" d="M214.612 5.79303C215.219 4.88341 216.452 4.64375 217.356 5.25983L225.577 10.8643C226.468 11.4722 226.704 12.6847 226.105 13.5821L221.531 20.4307C224.647 23.5849 226.929 27.626 228.003 32.1641H236.557C237.644 32.1641 238.525 33.0445 238.525 34.1309V42.9835C238.525 44.0699 237.644 44.9503 236.557 44.9503H227.749C226.852 48.1598 225.344 51.0977 223.365 53.6192L227.395 59.4337C228.01 60.3204 227.795 61.5371 226.915 62.1602L218.791 67.9073C217.898 68.539 216.661 68.3209 216.038 67.4219L211.991 61.584C209.806 62.2798 207.486 62.6553 205.082 62.6553C202.698 62.6553 200.397 62.2854 198.227 61.6007L195.051 67.1592C194.509 68.1084 193.297 68.4334 192.352 67.8829L183.765 62.8741C182.833 62.3301 182.513 61.1357 183.049 60.1983L186.803 53.626C184.822 51.1031 183.312 48.1626 182.415 44.9503H173.606C172.52 44.95 171.639 44.0697 171.639 42.9835V34.1309C171.639 33.0446 172.52 32.1644 173.606 32.1641H182.161C183.079 28.2803 184.883 24.7603 187.338 21.8487L182.256 12.9542C181.72 12.0168 182.04 10.8233 182.972 10.2794L191.558 5.27057C192.503 4.71977 193.715 5.04429 194.258 5.99323L199.004 14.2989C200.943 13.7621 202.98 13.4747 205.082 13.4747C206.496 13.4747 207.882 13.6051 209.228 13.8536L214.612 5.79303ZM204.098 29.213C199.209 29.213 195.246 33.1764 195.246 38.0655C195.246 42.9545 199.209 46.918 204.098 46.918C208.987 46.918 212.951 42.9545 212.951 38.0655C212.951 33.1764 208.987 29.213 204.098 29.213Z" fill="var(--fill-0, #FAEB50)"/>
<path id="Combined Shape" d="M194.211 121.671C194.754 121.671 195.195 122.112 195.195 122.655C195.195 123.137 194.847 123.539 194.389 123.623L194.211 123.638H165.737C163.13 123.638 160.997 125.668 160.83 128.233L160.819 128.556V168.884C160.819 171.492 162.849 173.626 165.414 173.792L165.737 173.802H206.065C208.673 173.802 210.807 171.773 210.974 169.208L210.983 168.884V128.556C210.983 125.949 208.954 123.815 206.389 123.649L206.065 123.638H200.828C200.285 123.638 199.845 123.198 199.845 122.655C199.845 122.172 200.193 121.77 200.651 121.687L200.828 121.671H206.065C209.741 121.671 212.744 124.552 212.94 128.179L212.951 128.556V152.046H218.853V143.901C218.853 140.437 221.589 137.61 225.032 137.419L225.403 137.409H263.449C266.94 137.409 269.796 140.116 269.989 143.532L270 143.901V160.425C270 160.968 269.56 161.409 269.017 161.409C268.534 161.409 268.132 161.061 268.049 160.602L268.033 160.425V143.901C268.033 141.509 266.15 139.546 263.763 139.386L263.449 139.375H225.403C222.975 139.376 220.991 141.239 220.83 143.591L220.819 143.901V160.425C220.819 162.818 222.703 164.78 225.09 164.939L225.403 164.95H229.753C230.296 164.95 230.736 165.39 230.736 165.933C230.736 166.416 230.388 166.817 229.93 166.901L229.753 166.916H225.403C221.912 166.916 219.056 164.209 218.863 160.793L218.853 160.425V153.03H212.951V168.884C212.951 172.56 210.07 175.563 206.443 175.759L206.065 175.77H185.901V184.13L185.892 184.454C185.724 187.02 183.575 189.048 180.951 189.048H147.049V207.246C147.049 210.921 144.169 213.924 140.542 214.121L140.164 214.13H107.213V229.869H106.759C108.371 229.889 109.672 231.202 109.672 232.819C109.672 233.357 109.526 233.86 109.274 234.294H221.804V217.917L221.812 217.554C221.982 214.217 224.517 212.53 229.189 212.53H240.443L240.74 212.519C242.802 212.367 244.426 210.653 244.426 208.561V166.916H234.137C233.593 166.916 233.153 166.476 233.153 165.933C233.154 165.45 233.501 165.049 233.96 164.965L234.137 164.95H261.883C262.426 164.95 262.866 165.39 262.866 165.933C262.866 166.416 262.518 166.818 262.06 166.901L261.883 166.916H245.41V208.561L245.399 208.887C245.231 211.471 243.076 213.513 240.443 213.513H229.189L228.732 213.519C224.693 213.619 222.787 215.074 222.787 217.917V234.294H403.278V236.261H0V234.294H73.6768C73.4252 233.86 73.2784 233.357 73.2783 232.819C73.2786 231.202 74.5796 229.889 76.1914 229.869H75.7373V214.13H42.7871C39.1112 214.13 36.1082 211.249 35.9121 207.623L35.9014 207.246V151.179C35.9016 147.503 38.7824 144.5 42.4092 144.304L42.7871 144.294H121.143C121.686 144.295 122.126 144.735 122.126 145.278C122.126 145.761 121.778 146.162 121.319 146.246L121.143 146.261H42.7871C40.1797 146.261 38.0455 148.291 37.8789 150.856L37.8691 151.179V200.852H60.9834C61.255 200.852 61.4756 201.073 61.4756 201.344C61.4753 201.577 61.3135 201.772 61.0967 201.823L60.9834 201.835H37.8691V207.246C37.8694 209.853 39.8986 211.986 42.4639 212.153L42.7871 212.164H140.164C142.771 212.163 144.905 210.134 145.071 207.569L145.082 207.246V201.835H64.918C64.6466 201.835 64.4262 201.615 64.4258 201.344C64.4258 201.112 64.5877 200.916 64.8047 200.865L64.918 200.852H145.082V151.179C145.082 148.572 143.053 146.438 140.487 146.272L140.164 146.261H131.541C130.998 146.261 130.558 145.821 130.558 145.278C130.558 144.795 130.905 144.393 131.364 144.31L131.541 144.294H140.164C143.84 144.294 146.843 147.175 147.039 150.802L147.049 151.179V188.065H180.951L181.247 188.054C183.3 187.904 184.918 186.204 184.918 184.13V175.77H165.737C162.062 175.77 159.058 172.889 158.862 169.262L158.853 168.884V128.556C158.853 124.88 161.734 121.877 165.36 121.681L165.737 121.671H194.211ZM76.2295 231.834C75.6866 231.835 75.2454 232.276 75.2451 232.819C75.2453 233.301 75.5942 233.703 76.0527 233.787L76.2295 233.802H106.721C107.264 233.802 107.704 233.362 107.704 232.819C107.704 232.336 107.356 231.934 106.897 231.851L106.721 231.834H76.2295ZM77.7041 229.868H105.245V214.13H77.7041V229.868ZM200.164 131.016C201.97 131.016 203.451 132.407 203.595 134.176L203.606 134.458V162.983C203.606 164.789 202.216 166.271 200.446 166.415L200.164 166.425H178.937C178.665 166.425 178.445 166.205 178.444 165.934C178.444 165.701 178.606 165.506 178.823 165.455L178.937 165.442H200.164C201.437 165.442 202.484 164.474 202.61 163.234L202.623 162.983V134.458C202.623 133.185 201.655 132.138 200.415 132.012L200.164 131.999H171.64C170.367 131.999 169.319 132.967 169.193 134.207L169.181 134.458V162.983C169.181 164.256 170.148 165.303 171.388 165.429L171.64 165.442H175.125C175.396 165.442 175.616 165.663 175.616 165.934C175.616 166.167 175.454 166.362 175.237 166.413L175.125 166.425H171.64C169.833 166.425 168.352 165.034 168.208 163.265L168.196 162.983V134.458C168.196 132.652 169.588 131.17 171.357 131.027L171.64 131.016H200.164ZM261.639 142.327C262.453 142.327 263.114 142.988 263.114 143.802C263.114 144.617 262.453 145.278 261.639 145.278H227.213C226.398 145.278 225.737 144.617 225.737 143.802C225.738 142.988 226.398 142.327 227.213 142.327H261.639ZM227.213 143.31C226.942 143.31 226.721 143.531 226.721 143.802C226.721 144.035 226.883 144.229 227.1 144.281L227.213 144.293H261.639C261.91 144.293 262.131 144.074 262.131 143.802C262.131 143.57 261.969 143.375 261.752 143.324L261.639 143.31H227.213Z" fill="var(--fill-0, black)"/>
<g id="Person">
<path id="Combined Shape_2" d="M326.458 139.377C321.788 139.377 318.442 140.431 314.996 142.997C312.738 144.417 310.741 146.82 308.984 150.187C306.553 154.849 297.446 160.992 291.492 161.812L290.833 161.884L288.06 162.131C281.044 162.717 278.845 162.518 275.797 160.998C274.683 160.442 273.709 160.427 272.983 160.891L272.727 160.809L271.9 160.592C266.636 159.185 261.599 160.406 260.711 163.708C259.85 166.911 263.35 170.368 268.364 171.858L269.462 172.169L270.905 172.602C271.404 172.743 271.716 172.808 272.124 172.864C272.323 172.891 272.521 172.907 272.719 172.916C273.149 173.834 274.368 174.28 276.125 174.332L276.477 174.337C276.793 174.337 280.112 174.661 280.176 174.667C287.624 175.324 294.341 175.132 301.019 173.417C302.614 173.007 304.148 172.518 305.617 171.946L305.58 173.012C305.525 174.922 305.479 177.301 305.435 180.264L290.701 177.737C284.868 177.737 281.33 179.836 280.907 186.691L280.868 187.449C280.641 192.855 281.213 202.998 282.578 217.794C282.504 218.995 282.953 219.869 283.84 220.502C283.619 222.083 282.361 223.858 281.168 224.156C280.674 224.279 278.716 224.916 278.453 224.995C276.619 225.542 274.865 225.859 272.762 225.923L271.955 225.934C267.837 225.934 266.995 228.803 269.24 233.43L269.708 234.353L274.893 234.458C285.08 234.642 291.455 234.612 294.067 234.362C297.868 233.998 297.775 229.537 294.57 221.364C296.163 220.884 297.215 220.13 297.467 218.871L297.511 218.577L297.512 196.298L298.058 196.318C302.504 196.529 305.691 197.687 308.785 199.708L309.045 199.881L306.333 226.215C306.333 231.68 309.272 234.577 314.803 234.577L315.372 234.569C320.374 234.44 331.836 232.701 349.852 229.345C350.18 229.284 350.441 229.064 350.569 228.775C350.704 228.764 350.838 228.745 350.974 228.714L351.294 228.625C351.419 228.585 351.534 228.543 351.74 228.467C352.921 228.037 353.819 228.215 356.074 230.027L356.423 230.311C357.88 231.515 360.089 233.806 360.13 233.842C361.064 234.613 361.945 234.787 364.372 234.787C367.707 234.787 369.584 233.594 369.325 231.233L369.284 230.944L369.24 230.691L365.436 226.047C359.643 219.018 356.147 215.027 354.851 213.973C352.862 212.357 349.955 213.845 345.949 217.966C345.039 217 344.102 216.414 343.242 216.5C340.081 216.815 335.894 217.059 332.307 217.145L331.042 217.17C329.829 217.186 328.78 217.179 327.968 217.149L327.369 217.12C327.279 217.114 327.194 217.109 327.114 217.102L326.744 217.062L326.743 216.982C326.746 216.679 326.794 216.153 326.916 215.386L328.036 209.245L328.176 208.422C328.325 207.507 328.462 206.593 328.547 205.844C329.866 201.964 330.522 197.541 330.522 192.576C330.522 192.417 330.485 192.267 330.418 192.134L337.483 155.726C339.281 146.928 334.923 139.377 326.458 139.377ZM347.185 219.519C350.571 216 352.774 214.821 353.609 215.5L353.825 215.685C355.325 217.039 359.406 221.777 365.955 229.779L367.369 231.508L367.372 231.592C367.355 232.368 366.629 232.771 364.74 232.815L364.372 232.819L363.648 232.813C362.237 232.787 361.796 232.666 361.383 232.325L360.702 231.622C359.939 230.853 358.678 229.622 357.676 228.795C354.786 226.408 353.156 225.949 351.319 226.533L350.696 226.751C350.597 226.782 350.518 226.801 350.45 226.81C349.969 224.659 348.692 221.713 347.185 219.519ZM326.458 141.343C333.359 141.344 336.981 147.375 335.644 154.872L328.475 191.823C328.432 192.046 328.469 192.265 328.564 192.453C328.559 192.493 328.556 192.534 328.556 192.576C328.556 197.335 327.93 201.546 326.642 205.394L326.445 206.756L326.147 208.624C325.792 210.699 325.058 214.567 325.033 214.71L324.911 215.474C324.685 217.012 324.728 217.809 325.181 218.437C325.926 219.472 335.596 219.239 343.436 218.458C344.791 218.323 347.82 224.274 348.535 227.311L348.595 227.577L343.334 228.542C328.965 231.135 319.616 232.489 315.352 232.602L314.803 232.609C310.5 232.609 308.439 230.72 308.302 226.736L308.295 226.316L311.371 196.496C311.427 195.955 311.033 195.471 310.493 195.416C310.013 195.366 309.578 195.672 309.448 196.12L309.414 196.294L309.27 197.688C305.885 195.598 302.291 194.436 297.328 194.324L296.526 194.315H295.543L295.548 218.479C295.457 219.381 291.863 220.128 290.256 220.034C286.669 219.817 284.471 219.076 284.54 217.764L283.994 211.554C282.977 199.417 282.603 191.158 282.871 186.812C283.205 181.394 285.625 179.8 290.107 179.695L290.533 179.69L305.461 182.264L305.479 182.368C307.571 187.597 313.815 190.911 324.087 192.442C324.624 192.522 325.125 192.151 325.205 191.614C325.285 191.077 324.914 190.576 324.377 190.496C315.001 189.098 309.401 186.229 307.468 182.013L307.379 181.803L307.476 175.981C307.498 174.908 307.522 173.943 307.547 173.077L307.616 171.097C313.047 168.595 317.487 164.841 320.701 159.642C320.987 159.18 320.844 158.575 320.382 158.289C319.92 158.003 319.313 158.146 319.027 158.608C314.884 165.309 308.552 169.452 300.53 171.511C294.488 173.063 288.36 173.32 281.62 172.811L277.151 172.413C276.822 172.386 276.572 172.37 276.477 172.37C274.999 172.37 274.555 172.19 274.524 172.021L274.514 171.629C273.67 167.694 273.395 164.94 273.667 163.442C273.852 162.419 274.042 162.32 274.919 162.758L275.521 163.049C278.99 164.652 281.692 164.695 290.266 163.912L291.21 163.824C297.649 163.228 307.443 156.793 310.516 151.483L310.728 151.096C312.347 147.994 314.138 145.846 316.081 144.637C316.083 144.636 316.085 144.635 316.087 144.634C316.108 144.62 316.129 144.607 316.149 144.592C319.256 142.273 322.193 141.344 326.458 141.343ZM285.684 221.341C286.877 221.691 288.382 221.89 290.139 221.997C290.504 222.018 291.576 221.941 292.622 221.785C295.421 228.831 295.576 232.241 293.88 232.403L292.896 232.476C290.174 232.633 284.954 232.652 277.265 232.531L270.933 232.41L270.825 232.191C269.376 229.124 269.723 227.986 271.718 227.906L271.955 227.901C274.334 227.901 276.296 227.622 278.273 227.092L279.017 226.881C279.339 226.784 281.23 226.169 281.644 226.065C283.52 225.597 285.175 223.488 285.684 221.341ZM262.61 164.218C263.115 162.342 266.772 161.395 270.943 162.381L271.842 162.614C271.799 162.765 271.762 162.925 271.731 163.092C271.432 164.744 271.648 167.33 272.357 170.909C271.958 170.853 271.641 170.774 270.878 170.543L269.567 170.152L269.347 170.092C264.992 168.927 262.088 166.161 262.61 164.218ZM317.705 108.884C309.828 108.885 303.443 115.49 303.443 123.638C303.443 131.787 309.828 138.392 317.705 138.392C325.582 138.392 331.968 131.787 331.968 123.638C331.968 115.49 325.582 108.885 317.705 108.884ZM317.705 110.851C324.48 110.852 330.001 116.562 330.001 123.638C330.001 130.715 324.48 136.425 317.705 136.425C310.93 136.425 305.41 130.715 305.41 123.638C305.41 116.562 310.93 110.852 317.705 110.851Z" fill="var(--fill-0, black)"/>
</g>
<g id="Group">
<circle id="Oval" cx="91.4754" cy="206.753" r="2.45902" fill="var(--fill-0, black)"/>
</g>
<path id="Combined Shape_3" d="M209.86 1.3125C210.712 0.03701 212.385 -0.361486 213.709 0.350586L213.975 0.512695L222.197 6.11719C223.455 6.97528 223.842 8.63658 223.134 9.95117L222.988 10.1934L218.852 16.3828L218.869 16.3994C221.484 19.2256 223.446 22.6378 224.589 26.3799L224.835 27.2461L232.623 27.2441C234.061 27.2441 235.258 28.2732 235.52 29.6348L235.56 29.9111L235.574 30.1953V39.0479C235.574 40.5816 234.403 41.8424 232.907 41.9854L232.623 41.999L224.548 42L224.519 42.1006C223.759 44.5128 222.657 46.7875 221.256 48.8545L220.715 49.6191L220.646 49.71L224.269 54.9375C225.079 56.1061 224.929 57.6562 223.985 58.6494L223.771 58.8535L223.548 59.0273L215.424 64.7744C214.172 65.6603 212.467 65.4329 211.486 64.2939L211.295 64.0469L207.655 58.7939L207.483 58.8467C206.019 59.2515 204.516 59.5151 202.99 59.6328L202.072 59.6855L201.147 59.7031C199.004 59.7031 196.896 59.4178 194.863 58.8604L194.76 58.8301L191.97 63.7129C191.257 64.961 189.77 65.4903 188.456 65.041L188.195 64.9375L187.922 64.7979L179.336 59.7891C178.019 59.0211 177.516 57.3888 178.131 56.0273L178.26 55.7754L181.692 49.7686L181.585 49.627C180.106 47.6115 178.923 45.3789 178.077 43L177.776 42.1016L177.746 42L169.673 41.999C168.235 41.999 167.036 40.9699 166.774 39.6084L166.735 39.332L166.721 39.0479V30.1953C166.721 28.6615 167.892 27.4008 169.388 27.2578L169.673 27.2441L177.459 27.2461L177.468 27.2109C178.318 24.059 179.743 21.1179 181.655 18.5371L182.142 17.9004L182.214 17.8135L177.466 9.50781C176.758 8.26721 177.049 6.72702 178.088 5.82129L178.304 5.64844L178.542 5.49512L187.129 0.486328C188.453 -0.286489 190.132 0.0889387 191.011 1.3125L191.177 1.57129L195.548 9.22266L195.689 9.18848C196.874 8.90924 198.081 8.72126 199.303 8.62695L200.223 8.57324L201.147 8.55566C202.317 8.55566 203.476 8.64049 204.62 8.80859L204.828 8.84277L209.86 1.3125ZM212.86 2.13281C212.458 1.86465 211.931 1.93126 211.607 2.2666L211.496 2.4043L206.114 10.4639C205.896 10.7907 205.503 10.9561 205.117 10.8848C203.816 10.6445 202.489 10.5225 201.147 10.5225C199.162 10.5225 197.212 10.7895 195.33 11.3105C194.951 11.4154 194.552 11.2834 194.308 10.9873L194.214 10.8506L189.471 2.55078C189.222 2.1237 188.719 1.95049 188.281 2.10938L188.12 2.18555L179.533 7.19434C179.119 7.43618 178.946 7.93433 179.101 8.37109L179.174 8.53125L184.256 17.4238C184.461 17.7821 184.421 18.2304 184.155 18.5459C181.765 21.3816 180.053 24.7742 179.182 28.4561C179.09 28.8443 178.775 29.1322 178.392 29.1982L178.224 29.2129L169.673 29.2119C169.19 29.2119 168.788 29.5597 168.705 30.0186L168.688 30.1953V39.0479C168.688 39.5306 169.037 39.9324 169.496 40.0156L169.673 40.0312L178.479 40.0332C178.92 40.0333 179.308 40.3271 179.426 40.752C180.279 43.8028 181.717 46.6332 183.642 49.084C183.854 49.3537 183.907 49.7102 183.794 50.0254L183.722 50.1797L179.968 56.752C179.73 57.1685 179.83 57.6864 180.182 57.9873L180.327 58.0889L188.909 63.0957C189.338 63.3411 189.861 63.2387 190.161 62.8818L190.262 62.7363L193.438 57.1787C193.668 56.7768 194.147 56.5892 194.589 56.7285C196.697 57.3939 198.899 57.7363 201.147 57.7363C203.414 57.7363 205.635 57.3883 207.759 56.7119C208.112 56.5995 208.493 56.6958 208.75 56.9492L208.867 57.0889L212.912 62.9258L213.028 63.0635C213.323 63.3539 213.765 63.43 214.134 63.2578L214.288 63.1689L222.412 57.4209C222.803 57.1439 222.931 56.6327 222.739 56.2109L222.652 56.0576L218.624 50.2441C218.378 49.8895 218.392 49.4156 218.659 49.0762C220.581 46.6271 222.017 43.7997 222.869 40.752C222.973 40.3802 223.282 40.108 223.653 40.0459L223.816 40.0332L232.623 40.0312C233.105 40.0312 233.507 39.6833 233.59 39.2246L233.606 39.0479V30.1953C233.606 29.7124 233.258 29.3108 232.799 29.2275L232.623 29.2119L224.07 29.2129C223.614 29.2128 223.218 28.8996 223.113 28.4561C222.096 24.1558 219.934 20.2567 216.899 17.1846C216.612 16.894 216.538 16.4622 216.698 16.0986L216.78 15.9473L221.352 9.10156C221.619 8.70271 221.555 8.17933 221.224 7.85449L221.089 7.74219L212.86 2.13281ZM200.164 24.2939C205.596 24.2939 210 28.6985 210 34.1309C209.999 39.5629 205.596 43.9668 200.164 43.9668C194.732 43.9667 190.328 39.5629 190.328 34.1309C190.328 28.6986 194.732 24.2941 200.164 24.2939ZM200.164 26.2617C195.818 26.2618 192.296 29.7851 192.296 34.1309C192.296 38.4764 195.818 41.9989 200.164 41.999C204.509 41.999 208.033 38.4765 208.033 34.1309C208.033 29.785 204.51 26.2617 200.164 26.2617Z" fill="var(--fill-0, black)"/>
</g>
</svg>
